<?xml version="1.0" encoding="UTF-8" standalone="no"?><!DOCTYPE svg PUBLIC "-//W3C//DTD SVG 1.1//EN" "http://www.w3.org/Graphics/SVG/1.1/DTD/svg11.dtd">
<svg width="100%" height="100%" viewBox="0 0 24 24" version="1.1"
    xmlns="http://www.w3.org/2000/svg"
    xmlnsXlink="http://www.w3.org/1999/xlink" xmlSpace="preserve"
    xmlnsSerif="http://www.serif.com/" style="fill-rule:evenodd;clip-rule:evenodd;stroke-linejoin:round;stroke-miterlimit:2;">
    <g id="Icon">
        <g>
            <path fill="#FFFFFF" d="M12.595,1.544c-0.142,-0.185 -0.362,-0.294 -0.595,-0.294c-0.233,-0 -0.453,0.109 -0.595,0.294c-0,-0 -3.475,4.537 -5.56,8.602c-0.947,1.846 -1.595,3.609 -1.595,4.854c0,4.277 3.473,7.75 7.75,7.75c4.277,0 7.75,-3.473 7.75,-7.75c0,-1.245 -0.648,-3.008 -1.595,-4.854c-2.085,-4.065 -5.56,-8.602 -5.56,-8.602Zm1.906,9.926l-6.031,6.031c-0.293,0.293 -0.293,0.768 -0,1.061c0.292,0.293 0.768,0.293 1.06,-0l6.032,-6.032c0.293,-0.292 0.293,-0.768 -0,-1.06c-0.293,-0.293 -0.768,-0.293 -1.061,-0Zm-0.033,3.78c-0.966,0 -1.75,0.784 -1.75,1.75c0,0.966 0.784,1.75 1.75,1.75c0.966,0 1.75,-0.784 1.75,-1.75c0,-0.966 -0.784,-1.75 -1.75,-1.75Zm0,1.5c0.138,0 0.25,0.112 0.25,0.25c0,0.138 -0.112,0.25 -0.25,0.25c-0.138,0 -0.25,-0.112 -0.25,-0.25c0,-0.138 0.112,-0.25 0.25,-0.25Zm-4.968,-5.468c-0.966,-0 -1.75,0.784 -1.75,1.75c-0,0.966 0.784,1.75 1.75,1.75c0.966,-0 1.75,-0.784 1.75,-1.75c-0,-0.966 -0.784,-1.75 -1.75,-1.75Zm-0,1.5c0.138,-0 0.25,0.112 0.25,0.25c-0,0.138 -0.112,0.25 -0.25,0.25c-0.138,-0 -0.25,-0.112 -0.25,-0.25c-0,-0.138 0.112,-0.25 0.25,-0.25Z"/>
        </g>
    </g>
</svg>