<?xml version="1.0" encoding="UTF-8"?>
<!DOCTYPE svg PUBLIC "-//W3C//DTD SVG 1.1//EN" "http://www.w3.org/Graphics/SVG/1.1/DTD/svg11.dtd">
<!-- Creator: CorelDRAW -->
<svg xmlns="http://www.w3.org/2000/svg" xmlSpace="preserve" width="1.70666in" height="1.70666in" version="1.1" style="shape-rendering:geometricPrecision; text-rendering:geometricPrecision; image-rendering:optimizeQuality; fill-rule:evenodd; clip-rule:evenodd"
viewBox="0 0 1706.66 1706.66"
 xmlnsXlink="http://www.w3.org/1999/xlink"
 xmlnsXodm="http://www.corel.com/coreldraw/odm/2003">
 <defs>
  <style type="text/css">
   .fil0 
     {
       fill: #FFFFFF;
     }
   
  </style>
 </defs>
 <g id="Layer_x0020_1">
  <metadata id="CorelCorpID_0Corel-Layer"/>
  <path class="fil0" d="M1415.83 1382.08c-11.04,0 -20,-8.97 -20,-20 0,-299.13 -243.35,-542.5 -542.5,-542.5 -299.13,0 -542.48,243.35 -542.48,542.5 0,26.33 -40,26.32 -40,0 0,-321.19 261.3,-582.48 582.48,-582.48 321.19,0 582.5,261.3 582.5,582.48 0,11.04 -8.96,20 -20,20z"/>
  <path class="fil0" d="M853.33 997.6c-11.04,0 -20,-8.97 -20,-20l0 -178.02c0,-26.33 40,-26.33 40,0l0 178.01c0,11.04 -8.96,20.01 -20,20.01z"/>
  <path class="fil0" d="M1045.56 1049.11c-15.17,0 -25.07,-16.54 -17.3,-30l89 -154.16c13.15,-22.79 47.81,-2.82 34.64,20l-89 154.17c-3.7,6.41 -10.43,10 -17.33,10z"/>
  <path class="fil0" d="M1186.31 1189.83c-20.28,0 -27.71,-27.12 -10.02,-37.33l154.17 -89c22.75,-13.14 42.82,21.46 20,34.64 -20.87,12.05 -152.3,91.7 -164.15,91.7z"/>
  <path class="fil0" d="M1415.83 1382.08l-178 0c-26.33,0 -26.32,-40 0,-40l178 0c26.32,0 26.32,40 0,40z"/>
  <path class="fil0" d="M468.84 1382.08l-177.99 0c-26.33,0 -26.33,-40 0,-40l177.99 0c26.32,0 26.34,40 0,40z"/>
  <path class="fil0" d="M520.33 1189.83c-11.89,0 -143.24,-79.62 -164.15,-91.68 -22.78,-13.15 -2.83,-47.83 20,-34.64l154.17 89c17.66,10.19 10.31,37.32 -10.02,37.32z"/>
  <path class="fil0" d="M661.11 1049.11c-6.92,0 -13.64,-3.59 -17.35,-10.02l-89 -154.17c-13.17,-22.81 21.49,-42.79 34.63,-20l89 154.16c7.78,13.48 -2.19,30.02 -17.28,30.02z"/>
  <path class="fil0" d="M853.33 1452.39c-118.85,0 -118.85,-180.63 0,-180.63 118.87,0 118.87,180.63 0,180.63zm0 -140.62c-66.21,0 -66.21,100.61 0,100.61 66.21,0 66.21,-100.61 0,-100.61z"/>
  <path class="fil0" d="M892.01 1323.37c-15.73,0 -25.51,-17.63 -16.67,-31.02l100.54 -152.23c14.51,-21.97 47.87,0.09 33.36,22.05l-100.54 152.23c-3.83,5.8 -10.21,8.97 -16.69,8.97z"/>
  <path class="fil0" d="M1404.71 1235.39c-42.67,0 -30.57,-40 -8.22,-40 303.14,0 366.8,-399.21 106.62,-504.7 -6.17,-2.5 -10.69,-7.91 -12.06,-14.43 -35.01,-167.02 -220.63,-257.18 -374.21,-179.89 -11.21,5.65 -24.8,-0.3 -28.26,-12.35 -69.86,-242.95 -412.44,-254.83 -498.37,-16.46 -10.07,27.93 -36.69,0.83 -101.7,0.83 -122.17,0 -227.02,82.96 -254.95,201.72 -1.59,6.8 -6.61,12.25 -13.23,14.43 -107.85,35.33 -180.3,135.35 -180.3,248.91 0,145.98 115.46,261.87 270.14,261.91 22.37,0 34.44,40 -8.22,40 -166.48,0 -301.92,-135.44 -301.92,-301.93 0,-127.15 78.84,-239.62 197.33,-283.27 43.35,-158.48 204,-251.44 362.04,-213.39 107.6,-249.61 466.04,-239.55 560.44,14.24 169.08,-69.92 363.87,28.03 408.02,206.72 108.96,48.61 178.79,155.7 178.79,275.73 0,166.48 -135.44,301.91 -301.93,301.91z"/>
 </g>
</svg>
